# xmcd
#
# Track frame offsets:
#	150
#	16725
#	26010
#	29785
#	44790
#	55343
#	74992
#	86948
#	92988
#	110059
#	120246
#	128523
#	140288
#	162991
#	191603
#	204905
#	241473
#	248005
#	262901
#	269479
#	282160
#	301288
#	315319
#	320324
#	353088
#
# Disc length: 4718 seconds
#
# Revision: 0
# Processed by: cddbd v1.5.2PL0 Copyright (c) Steve Scherf et al.
# Submitted via: EasyCDDAExtractor 11.0.2.1
#
DISCID=70126c19
DTITLE=Olavi Letku ja Tenho Liiteri - Nauravat nakit
DYEAR=2007
DGENRE=
TTITLE0=Puimuri
TTITLE1=Sulhasen miesystävä
TTITLE2=Jasserin Kebab
TTITLE3=Kyllä-Kivimäki
TTITLE4=Hökkyläpiimä-rap
TTITLE5=Koolinki
TTITLE6=Leipäkone
TTITLE7=Pullapoika-rock
TTITLE8=Lakituvassa
TTITLE9=Mr. Pohjanmaa -skaba
TTITLE10=Tervetuloa laivaan
TTITLE11=Lystinpitoa hytissä
TTITLE12=Tunnista ääniä
TTITLE13=Jurvan juhannus
TTITLE14=Kahilan tuuraaja
TTITLE15=Onninpyörä
TTITLE16=Maakuntauutisia
TTITLE17=Tervahöyry
TTITLE18=Veronpalautus
TTITLE19=Kenraali kannustaa maajoukkuetta
TTITLE20=Diakoni
TTITLE21=Juhliva Teuva
TTITLE22=Joulunajan mainontaa
TTITLE23=Kaksi meteorologia
TTITLE24=Häh?
EXTD=
EXTT0=
EXTT1=
EXTT2=
EXTT3=
EXTT4=
EXTT5=
EXTT6=
EXTT7=
EXTT8=
EXTT9=
EXTT10=
EXTT11=
EXTT12=
EXTT13=
EXTT14=
EXTT15=
EXTT16=
EXTT17=
EXTT18=
EXTT19=
EXTT20=
EXTT21=
EXTT22=
EXTT23=
EXTT24=
PLAYORDER=
